<svg width="170" height="49" viewBox="0 0 170 49" fill="none" xmlns="http://www.w3.org/2000/svg">
<path d="M51.3483 30.4889V30.0708L53.5743 28.9993V14.7305L51.3483 13.659V13.2409H59.5717V13.659L57.5289 14.7305V20.898H64.7833V14.7305L62.6882 13.659V13.2409H70.9378V13.659L68.7379 14.7305V28.9993L70.9378 30.0708V30.4889H62.6882V30.0708L64.7833 28.9993V22.3353H57.5289V28.9993L59.5717 30.0708V30.4889H51.3483Z" fill="#17222D"/>
<path d="M79.2643 30.7502C78.0247 30.7502 76.9335 30.4715 75.9906 29.914C75.0478 29.339 74.3145 28.5812 73.7907 27.6404C73.267 26.6996 73.0051 25.6629 73.0051 24.5305C73.0051 23.3806 73.267 22.3353 73.7907 21.3945C74.3145 20.4537 75.0478 19.7045 75.9906 19.147C76.9335 18.5895 78.0247 18.3108 79.2643 18.3108C80.5039 18.3108 81.5864 18.5895 82.5117 19.147C83.4546 19.7045 84.1879 20.4537 84.7116 21.3945C85.2354 22.3353 85.4973 23.3806 85.4973 24.5305C85.4973 25.6629 85.2354 26.6996 84.7116 27.6404C84.1879 28.5812 83.4546 29.339 82.5117 29.914C81.5864 30.4715 80.5039 30.7502 79.2643 30.7502ZM79.5524 29.4697C80.0587 29.4697 80.469 29.2693 80.7833 28.8686C81.115 28.4505 81.3507 27.9017 81.4904 27.2222C81.6475 26.5428 81.7261 25.8197 81.7261 25.0532C81.7261 24.1124 81.6301 23.2238 81.438 22.3876C81.2634 21.5513 80.9753 20.8718 80.5738 20.3492C80.1896 19.8265 79.6746 19.5652 79.0286 19.5652C78.5048 19.5652 78.077 19.7742 77.7453 20.1924C77.4136 20.5931 77.1692 21.1332 77.012 21.8126C76.8549 22.4747 76.7763 23.1977 76.7763 23.9817C76.7763 24.9399 76.8723 25.8372 77.0644 26.6734C77.2565 27.4923 77.5533 28.163 77.9548 28.6857C78.3739 29.2084 78.9064 29.4697 79.5524 29.4697Z" fill="#17222D"/>
<path d="M87.1702 30.4889V30.0708L88.9248 29.2345V13.8681L87.2487 12.6398V12.3262L92.3032 10.8889H92.6175V29.2345L94.1627 30.0708V30.4889H87.1702Z" fill="#17222D"/>
<path d="M101.762 30.7502C99.9637 30.7502 98.5408 30.2363 97.4932 29.2084C96.4631 28.163 95.948 26.7867 95.948 25.0793C95.948 23.7552 96.2361 22.5879 96.8123 21.5774C97.3884 20.5495 98.1654 19.7481 99.1431 19.1732C100.121 18.5982 101.212 18.3108 102.417 18.3108C103.831 18.3108 104.931 18.7812 105.717 19.722C106.502 20.6628 106.904 21.9956 106.921 23.7204L106.817 23.851H99.4836V23.9817C99.4836 24.7134 99.6232 25.3842 99.9026 25.994C100.182 26.5863 100.618 27.0567 101.212 27.4052C101.823 27.7536 102.609 27.9278 103.569 27.9278C104.075 27.9278 104.599 27.8668 105.14 27.7449C105.699 27.6229 106.275 27.4139 106.869 27.1177H106.947V27.5358C106.511 28.4592 105.839 29.2258 104.931 29.8356C104.04 30.4453 102.984 30.7502 101.762 30.7502ZM101.814 19.4868C101.203 19.4868 100.697 19.7655 100.295 20.323C99.9113 20.8805 99.6669 21.6645 99.5621 22.675H103.988C103.866 21.4729 103.613 20.6453 103.229 20.1924C102.862 19.722 102.391 19.4868 101.814 19.4868Z" fill="#17222D"/>
<path d="M118.29 30.7502C117.033 30.7502 115.854 30.5412 114.754 30.123C113.672 29.6875 112.712 29.0864 111.874 28.3198C111.053 27.5532 110.407 26.656 109.936 25.6281C109.482 24.5828 109.255 23.4503 109.255 22.2308C109.255 20.8892 109.516 19.661 110.04 18.546C110.564 17.4135 111.289 16.4292 112.214 15.5929C113.139 14.7566 114.196 14.112 115.383 13.659C116.57 13.206 117.818 12.9796 119.128 12.9796C120.053 12.9796 120.839 13.0318 121.485 13.1364C122.148 13.2409 122.733 13.389 123.24 13.5806C123.763 13.7723 124.278 13.99 124.785 14.234L125.073 18.8334H124.601L122.087 15.0441C121.616 14.7479 121.162 14.5476 120.725 14.443C120.289 14.3211 119.791 14.2601 119.233 14.2601C118.133 14.2601 117.138 14.5737 116.247 15.2009C115.357 15.8281 114.65 16.7079 114.126 17.8404C113.602 18.9554 113.34 20.262 113.34 21.7604C113.34 23.3284 113.593 24.6786 114.1 25.811C114.606 26.926 115.287 27.7884 116.142 28.3982C117.015 29.008 117.984 29.3129 119.049 29.3129C119.346 29.3129 119.669 29.3042 120.018 29.2868C120.368 29.2519 120.717 29.1996 121.066 29.13V24.2953L118.735 23.067V22.6489H126.958V23.067L124.994 24.3214V28.555C124.453 29.008 123.798 29.4 123.03 29.731C122.279 30.0446 121.485 30.2972 120.647 30.4889C119.826 30.6631 119.041 30.7502 118.29 30.7502Z" fill="#17222D"/>
<path d="M134.857 30.7502C133.058 30.7502 131.635 30.2363 130.588 29.2084C129.558 28.163 129.043 26.7867 129.043 25.0793C129.043 23.7552 129.331 22.5879 129.907 21.5774C130.483 20.5495 131.26 19.7481 132.238 19.1732C133.215 18.5982 134.307 18.3108 135.511 18.3108C136.926 18.3108 138.025 18.7812 138.811 19.722C139.597 20.6628 139.998 21.9956 140.016 23.7204L139.911 23.851H132.578V23.9817C132.578 24.7134 132.718 25.3842 132.997 25.994C133.277 26.5863 133.713 27.0567 134.307 27.4052C134.918 27.7536 135.703 27.9278 136.664 27.9278C137.17 27.9278 137.694 27.8668 138.235 27.7449C138.794 27.6229 139.37 27.4139 139.963 27.1177H140.042V27.5358C139.606 28.4592 138.933 29.2258 138.025 29.8356C137.135 30.4453 136.079 30.7502 134.857 30.7502ZM134.909 19.4868C134.298 19.4868 133.792 19.7655 133.39 20.323C133.006 20.8805 132.761 21.6645 132.657 22.675H137.083C136.96 21.4729 136.707 20.6453 136.323 20.1924C135.957 19.722 135.485 19.4868 134.909 19.4868Z" fill="#17222D"/>
<path d="M148.156 30.7502C146.357 30.7502 144.934 30.2363 143.887 29.2084C142.857 28.163 142.342 26.7867 142.342 25.0793C142.342 23.7552 142.63 22.5879 143.206 21.5774C143.782 20.5495 144.559 19.7481 145.537 19.1732C146.515 18.5982 147.606 18.3108 148.81 18.3108C150.225 18.3108 151.325 18.7812 152.11 19.722C152.896 20.6628 153.298 21.9956 153.315 23.7204L153.21 23.851H145.877V23.9817C145.877 24.7134 146.017 25.3842 146.296 25.994C146.576 26.5863 147.012 27.0567 147.606 27.4052C148.217 27.7536 149.003 27.9278 149.963 27.9278C150.469 27.9278 150.993 27.8668 151.534 27.7449C152.093 27.6229 152.669 27.4139 153.263 27.1177H153.341V27.5358C152.905 28.4592 152.233 29.2258 151.325 29.8356C150.434 30.4453 149.378 30.7502 148.156 30.7502ZM148.208 19.4868C147.597 19.4868 147.091 19.7655 146.689 20.323C146.305 20.8805 146.061 21.6645 145.956 22.675H150.382C150.26 21.4729 150.006 20.6453 149.622 20.1924C149.256 19.722 148.784 19.4868 148.208 19.4868Z" fill="#17222D"/>
<path d="M155.151 30.4889V30.0708L156.905 29.2345V13.8681L155.229 12.6398V12.3262L160.258 10.8889H160.572V23.6681L164.5 20.0878V19.931L163.217 18.9902V18.5721H168.769V18.9902L167.093 19.9049L163.531 22.7012L168.324 29.1822L170 30.0708V30.4889H164.893L164.081 29.13L160.572 24.243V29.2606L162.274 30.0708V30.4889H155.151Z" fill="#17222D"/>
<path fill-rule="evenodd" clip-rule="evenodd" d="M26.5494 14.7L21.8243 0L17.0992 14.7L19.6419 16.3333V21.7778H17.0992L13.0946 19.6L0 23.9556L13.0946 28.3111L17.4595 26.1333H19.6419V32.6667L17.0992 35.9333L21.8243 49L26.5494 35.9333L24.0068 32.6667V26.1333H26.1892L30.554 28.3111L43.6486 23.9556L30.554 19.6L26.5494 21.7778H24.0068V16.3333L26.5494 14.7ZM21.8243 26.1333C23.0296 26.1333 24.0068 25.1583 24.0068 23.9556C24.0068 22.7528 23.0296 21.7778 21.8243 21.7778C20.619 21.7778 19.6419 22.7528 19.6419 23.9556C19.6419 25.1583 20.619 26.1333 21.8243 26.1333Z" fill="#17222D"/>
</svg>
