<svg width="175" height="56" viewBox="0 0 175 56" fill="none" xmlns="http://www.w3.org/2000/svg">
<mask id="path-1-outside-1_47_5" maskUnits="userSpaceOnUse" x="0" y="0" width="175" height="56" fill="black">
<rect fill="white" width="175" height="56"/>
<path d="M55.3483 34.4889V34.0708L57.5743 32.9993V18.7305L55.3483 17.659V17.2409H63.5717V17.659L61.5289 18.7305V24.898H68.7833V18.7305L66.6882 17.659V17.2409H74.9378V17.659L72.7379 18.7305V32.9993L74.9378 34.0708V34.4889H66.6882V34.0708L68.7833 32.9993V26.3353H61.5289V32.9993L63.5717 34.0708V34.4889H55.3483Z"/>
<path d="M83.2643 34.7502C82.0247 34.7502 80.9335 34.4715 79.9906 33.914C79.0478 33.339 78.3145 32.5812 77.7907 31.6404C77.267 30.6996 77.0051 29.6629 77.0051 28.5305C77.0051 27.3806 77.267 26.3353 77.7907 25.3945C78.3145 24.4537 79.0478 23.7045 79.9906 23.147C80.9335 22.5895 82.0247 22.3108 83.2643 22.3108C84.5039 22.3108 85.5864 22.5895 86.5117 23.147C87.4546 23.7045 88.1879 24.4537 88.7116 25.3945C89.2354 26.3353 89.4973 27.3806 89.4973 28.5305C89.4973 29.6629 89.2354 30.6996 88.7116 31.6404C88.1879 32.5812 87.4546 33.339 86.5117 33.914C85.5864 34.4715 84.5039 34.7502 83.2643 34.7502ZM83.5524 33.4697C84.0587 33.4697 84.469 33.2693 84.7833 32.8686C85.115 32.4505 85.3507 31.9017 85.4904 31.2222C85.6475 30.5428 85.7261 29.8197 85.7261 29.0532C85.7261 28.1124 85.6301 27.2238 85.438 26.3876C85.2634 25.5513 84.9753 24.8718 84.5738 24.3492C84.1896 23.8265 83.6746 23.5652 83.0286 23.5652C82.5048 23.5652 82.077 23.7742 81.7453 24.1924C81.4136 24.5931 81.1692 25.1332 81.012 25.8126C80.8549 26.4747 80.7763 27.1977 80.7763 27.9817C80.7763 28.9399 80.8723 29.8372 81.0644 30.6734C81.2565 31.4923 81.5533 32.163 81.9548 32.6857C82.3739 33.2084 82.9064 33.4697 83.5524 33.4697Z"/>
<path d="M91.1702 34.4889V34.0708L92.9248 33.2345V17.8681L91.2487 16.6398V16.3262L96.3032 14.8889H96.6175V33.2345L98.1627 34.0708V34.4889H91.1702Z"/>
<path d="M105.762 34.7502C103.964 34.7502 102.541 34.2363 101.493 33.2084C100.463 32.163 99.948 30.7867 99.948 29.0793C99.948 27.7552 100.236 26.5879 100.812 25.5774C101.388 24.5495 102.165 23.7481 103.143 23.1732C104.121 22.5982 105.212 22.3108 106.417 22.3108C107.831 22.3108 108.931 22.7812 109.717 23.722C110.502 24.6628 110.904 25.9956 110.921 27.7204L110.817 27.851H103.484V27.9817C103.484 28.7134 103.623 29.3842 103.903 29.994C104.182 30.5863 104.618 31.0567 105.212 31.4052C105.823 31.7536 106.609 31.9278 107.569 31.9278C108.075 31.9278 108.599 31.8668 109.14 31.7449C109.699 31.6229 110.275 31.4139 110.869 31.1177H110.947V31.5358C110.511 32.4592 109.839 33.2258 108.931 33.8356C108.04 34.4453 106.984 34.7502 105.762 34.7502ZM105.814 23.4868C105.203 23.4868 104.697 23.7655 104.295 24.323C103.911 24.8805 103.667 25.6645 103.562 26.675H107.988C107.866 25.4729 107.613 24.6453 107.229 24.1924C106.862 23.722 106.391 23.4868 105.814 23.4868Z"/>
<path d="M122.29 34.7502C121.033 34.7502 119.854 34.5412 118.754 34.123C117.672 33.6875 116.712 33.0864 115.874 32.3198C115.053 31.5532 114.407 30.656 113.936 29.6281C113.482 28.5828 113.255 27.4503 113.255 26.2308C113.255 24.8892 113.516 23.661 114.04 22.546C114.564 21.4135 115.289 20.4292 116.214 19.5929C117.139 18.7566 118.196 18.112 119.383 17.659C120.57 17.206 121.818 16.9796 123.128 16.9796C124.053 16.9796 124.839 17.0318 125.485 17.1364C126.148 17.2409 126.733 17.389 127.24 17.5806C127.763 17.7723 128.278 17.99 128.785 18.234L129.073 22.8334H128.601L126.087 19.0441C125.616 18.7479 125.162 18.5476 124.725 18.443C124.289 18.3211 123.791 18.2601 123.233 18.2601C122.133 18.2601 121.138 18.5737 120.247 19.2009C119.357 19.8281 118.65 20.7079 118.126 21.8404C117.602 22.9554 117.34 24.262 117.34 25.7604C117.34 27.3284 117.593 28.6786 118.1 29.811C118.606 30.926 119.287 31.7884 120.142 32.3982C121.015 33.008 121.984 33.3129 123.049 33.3129C123.346 33.3129 123.669 33.3042 124.018 33.2868C124.368 33.2519 124.717 33.1996 125.066 33.13V28.2953L122.735 27.067V26.6489H130.958V27.067L128.994 28.3214V32.555C128.453 33.008 127.798 33.4 127.03 33.731C126.279 34.0446 125.485 34.2972 124.647 34.4889C123.826 34.6631 123.041 34.7502 122.29 34.7502Z"/>
<path d="M138.857 34.7502C137.058 34.7502 135.635 34.2363 134.588 33.2084C133.558 32.163 133.043 30.7867 133.043 29.0793C133.043 27.7552 133.331 26.5879 133.907 25.5774C134.483 24.5495 135.26 23.7481 136.238 23.1732C137.215 22.5982 138.307 22.3108 139.511 22.3108C140.926 22.3108 142.025 22.7812 142.811 23.722C143.597 24.6628 143.998 25.9956 144.016 27.7204L143.911 27.851H136.578V27.9817C136.578 28.7134 136.718 29.3842 136.997 29.994C137.277 30.5863 137.713 31.0567 138.307 31.4052C138.918 31.7536 139.703 31.9278 140.664 31.9278C141.17 31.9278 141.694 31.8668 142.235 31.7449C142.794 31.6229 143.37 31.4139 143.963 31.1177H144.042V31.5358C143.606 32.4592 142.933 33.2258 142.025 33.8356C141.135 34.4453 140.079 34.7502 138.857 34.7502ZM138.909 23.4868C138.298 23.4868 137.792 23.7655 137.39 24.323C137.006 24.8805 136.761 25.6645 136.657 26.675H141.083C140.96 25.4729 140.707 24.6453 140.323 24.1924C139.957 23.722 139.485 23.4868 138.909 23.4868Z"/>
<path d="M152.156 34.7502C150.357 34.7502 148.934 34.2363 147.887 33.2084C146.857 32.163 146.342 30.7867 146.342 29.0793C146.342 27.7552 146.63 26.5879 147.206 25.5774C147.782 24.5495 148.559 23.7481 149.537 23.1732C150.515 22.5982 151.606 22.3108 152.81 22.3108C154.225 22.3108 155.325 22.7812 156.11 23.722C156.896 24.6628 157.298 25.9956 157.315 27.7204L157.21 27.851H149.877V27.9817C149.877 28.7134 150.017 29.3842 150.296 29.994C150.576 30.5863 151.012 31.0567 151.606 31.4052C152.217 31.7536 153.003 31.9278 153.963 31.9278C154.469 31.9278 154.993 31.8668 155.534 31.7449C156.093 31.6229 156.669 31.4139 157.263 31.1177H157.341V31.5358C156.905 32.4592 156.233 33.2258 155.325 33.8356C154.434 34.4453 153.378 34.7502 152.156 34.7502ZM152.208 23.4868C151.597 23.4868 151.091 23.7655 150.689 24.323C150.305 24.8805 150.061 25.6645 149.956 26.675H154.382C154.26 25.4729 154.006 24.6453 153.622 24.1924C153.256 23.722 152.784 23.4868 152.208 23.4868Z"/>
<path d="M159.151 34.4889V34.0708L160.905 33.2345V17.8681L159.229 16.6398V16.3262L164.258 14.8889H164.572V27.6681L168.5 24.0878V23.931L167.217 22.9902V22.5721H172.769V22.9902L171.093 23.9049L167.531 26.7012L172.324 33.1822L174 34.0708V34.4889H168.893L168.081 33.13L164.572 28.243V33.2606L166.274 34.0708V34.4889H159.151Z"/>
<path fill-rule="evenodd" clip-rule="evenodd" d="M30.5494 18.7L25.8243 4L21.0992 18.7L23.6419 20.3333V25.7778H21.0992L17.0946 23.6L4 27.9556L17.0946 32.3111L21.4595 30.1333H23.6419V36.6667L21.0992 39.9333L25.8243 53L30.5494 39.9333L28.0068 36.6667V30.1333H30.1892L34.554 32.3111L47.6486 27.9556L34.554 23.6L30.5494 25.7778H28.0068V20.3333L30.5494 18.7ZM25.8243 30.1333C27.0296 30.1333 28.0068 29.1583 28.0068 27.9556C28.0068 26.7528 27.0296 25.7778 25.8243 25.7778C24.619 25.7778 23.6419 26.7528 23.6419 27.9556C23.6419 29.1583 24.619 30.1333 25.8243 30.1333Z"/>
</mask>
<path d="M55.3483 34.4889V34.0708L57.5743 32.9993V18.7305L55.3483 17.659V17.2409H63.5717V17.659L61.5289 18.7305V24.898H68.7833V18.7305L66.6882 17.659V17.2409H74.9378V17.659L72.7379 18.7305V32.9993L74.9378 34.0708V34.4889H66.6882V34.0708L68.7833 32.9993V26.3353H61.5289V32.9993L63.5717 34.0708V34.4889H55.3483Z" fill="white"/>
<path d="M83.2643 34.7502C82.0247 34.7502 80.9335 34.4715 79.9906 33.914C79.0478 33.339 78.3145 32.5812 77.7907 31.6404C77.267 30.6996 77.0051 29.6629 77.0051 28.5305C77.0051 27.3806 77.267 26.3353 77.7907 25.3945C78.3145 24.4537 79.0478 23.7045 79.9906 23.147C80.9335 22.5895 82.0247 22.3108 83.2643 22.3108C84.5039 22.3108 85.5864 22.5895 86.5117 23.147C87.4546 23.7045 88.1879 24.4537 88.7116 25.3945C89.2354 26.3353 89.4973 27.3806 89.4973 28.5305C89.4973 29.6629 89.2354 30.6996 88.7116 31.6404C88.1879 32.5812 87.4546 33.339 86.5117 33.914C85.5864 34.4715 84.5039 34.7502 83.2643 34.7502ZM83.5524 33.4697C84.0587 33.4697 84.469 33.2693 84.7833 32.8686C85.115 32.4505 85.3507 31.9017 85.4904 31.2222C85.6475 30.5428 85.7261 29.8197 85.7261 29.0532C85.7261 28.1124 85.6301 27.2238 85.438 26.3876C85.2634 25.5513 84.9753 24.8718 84.5738 24.3492C84.1896 23.8265 83.6746 23.5652 83.0286 23.5652C82.5048 23.5652 82.077 23.7742 81.7453 24.1924C81.4136 24.5931 81.1692 25.1332 81.012 25.8126C80.8549 26.4747 80.7763 27.1977 80.7763 27.9817C80.7763 28.9399 80.8723 29.8372 81.0644 30.6734C81.2565 31.4923 81.5533 32.163 81.9548 32.6857C82.3739 33.2084 82.9064 33.4697 83.5524 33.4697Z" fill="white"/>
<path d="M91.1702 34.4889V34.0708L92.9248 33.2345V17.8681L91.2487 16.6398V16.3262L96.3032 14.8889H96.6175V33.2345L98.1627 34.0708V34.4889H91.1702Z" fill="white"/>
<path d="M105.762 34.7502C103.964 34.7502 102.541 34.2363 101.493 33.2084C100.463 32.163 99.948 30.7867 99.948 29.0793C99.948 27.7552 100.236 26.5879 100.812 25.5774C101.388 24.5495 102.165 23.7481 103.143 23.1732C104.121 22.5982 105.212 22.3108 106.417 22.3108C107.831 22.3108 108.931 22.7812 109.717 23.722C110.502 24.6628 110.904 25.9956 110.921 27.7204L110.817 27.851H103.484V27.9817C103.484 28.7134 103.623 29.3842 103.903 29.994C104.182 30.5863 104.618 31.0567 105.212 31.4052C105.823 31.7536 106.609 31.9278 107.569 31.9278C108.075 31.9278 108.599 31.8668 109.14 31.7449C109.699 31.6229 110.275 31.4139 110.869 31.1177H110.947V31.5358C110.511 32.4592 109.839 33.2258 108.931 33.8356C108.04 34.4453 106.984 34.7502 105.762 34.7502ZM105.814 23.4868C105.203 23.4868 104.697 23.7655 104.295 24.323C103.911 24.8805 103.667 25.6645 103.562 26.675H107.988C107.866 25.4729 107.613 24.6453 107.229 24.1924C106.862 23.722 106.391 23.4868 105.814 23.4868Z" fill="white"/>
<path d="M122.29 34.7502C121.033 34.7502 119.854 34.5412 118.754 34.123C117.672 33.6875 116.712 33.0864 115.874 32.3198C115.053 31.5532 114.407 30.656 113.936 29.6281C113.482 28.5828 113.255 27.4503 113.255 26.2308C113.255 24.8892 113.516 23.661 114.04 22.546C114.564 21.4135 115.289 20.4292 116.214 19.5929C117.139 18.7566 118.196 18.112 119.383 17.659C120.57 17.206 121.818 16.9796 123.128 16.9796C124.053 16.9796 124.839 17.0318 125.485 17.1364C126.148 17.2409 126.733 17.389 127.24 17.5806C127.763 17.7723 128.278 17.99 128.785 18.234L129.073 22.8334H128.601L126.087 19.0441C125.616 18.7479 125.162 18.5476 124.725 18.443C124.289 18.3211 123.791 18.2601 123.233 18.2601C122.133 18.2601 121.138 18.5737 120.247 19.2009C119.357 19.8281 118.65 20.7079 118.126 21.8404C117.602 22.9554 117.34 24.262 117.34 25.7604C117.34 27.3284 117.593 28.6786 118.1 29.811C118.606 30.926 119.287 31.7884 120.142 32.3982C121.015 33.008 121.984 33.3129 123.049 33.3129C123.346 33.3129 123.669 33.3042 124.018 33.2868C124.368 33.2519 124.717 33.1996 125.066 33.13V28.2953L122.735 27.067V26.6489H130.958V27.067L128.994 28.3214V32.555C128.453 33.008 127.798 33.4 127.03 33.731C126.279 34.0446 125.485 34.2972 124.647 34.4889C123.826 34.6631 123.041 34.7502 122.29 34.7502Z" fill="white"/>
<path d="M138.857 34.7502C137.058 34.7502 135.635 34.2363 134.588 33.2084C133.558 32.163 133.043 30.7867 133.043 29.0793C133.043 27.7552 133.331 26.5879 133.907 25.5774C134.483 24.5495 135.26 23.7481 136.238 23.1732C137.215 22.5982 138.307 22.3108 139.511 22.3108C140.926 22.3108 142.025 22.7812 142.811 23.722C143.597 24.6628 143.998 25.9956 144.016 27.7204L143.911 27.851H136.578V27.9817C136.578 28.7134 136.718 29.3842 136.997 29.994C137.277 30.5863 137.713 31.0567 138.307 31.4052C138.918 31.7536 139.703 31.9278 140.664 31.9278C141.17 31.9278 141.694 31.8668 142.235 31.7449C142.794 31.6229 143.37 31.4139 143.963 31.1177H144.042V31.5358C143.606 32.4592 142.933 33.2258 142.025 33.8356C141.135 34.4453 140.079 34.7502 138.857 34.7502ZM138.909 23.4868C138.298 23.4868 137.792 23.7655 137.39 24.323C137.006 24.8805 136.761 25.6645 136.657 26.675H141.083C140.96 25.4729 140.707 24.6453 140.323 24.1924C139.957 23.722 139.485 23.4868 138.909 23.4868Z" fill="white"/>
<path d="M152.156 34.7502C150.357 34.7502 148.934 34.2363 147.887 33.2084C146.857 32.163 146.342 30.7867 146.342 29.0793C146.342 27.7552 146.63 26.5879 147.206 25.5774C147.782 24.5495 148.559 23.7481 149.537 23.1732C150.515 22.5982 151.606 22.3108 152.81 22.3108C154.225 22.3108 155.325 22.7812 156.11 23.722C156.896 24.6628 157.298 25.9956 157.315 27.7204L157.21 27.851H149.877V27.9817C149.877 28.7134 150.017 29.3842 150.296 29.994C150.576 30.5863 151.012 31.0567 151.606 31.4052C152.217 31.7536 153.003 31.9278 153.963 31.9278C154.469 31.9278 154.993 31.8668 155.534 31.7449C156.093 31.6229 156.669 31.4139 157.263 31.1177H157.341V31.5358C156.905 32.4592 156.233 33.2258 155.325 33.8356C154.434 34.4453 153.378 34.7502 152.156 34.7502ZM152.208 23.4868C151.597 23.4868 151.091 23.7655 150.689 24.323C150.305 24.8805 150.061 25.6645 149.956 26.675H154.382C154.26 25.4729 154.006 24.6453 153.622 24.1924C153.256 23.722 152.784 23.4868 152.208 23.4868Z" fill="white"/>
<path d="M159.151 34.4889V34.0708L160.905 33.2345V17.8681L159.229 16.6398V16.3262L164.258 14.8889H164.572V27.6681L168.5 24.0878V23.931L167.217 22.9902V22.5721H172.769V22.9902L171.093 23.9049L167.531 26.7012L172.324 33.1822L174 34.0708V34.4889H168.893L168.081 33.13L164.572 28.243V33.2606L166.274 34.0708V34.4889H159.151Z" fill="white"/>
<path fill-rule="evenodd" clip-rule="evenodd" d="M30.5494 18.7L25.8243 4L21.0992 18.7L23.6419 20.3333V25.7778H21.0992L17.0946 23.6L4 27.9556L17.0946 32.3111L21.4595 30.1333H23.6419V36.6667L21.0992 39.9333L25.8243 53L30.5494 39.9333L28.0068 36.6667V30.1333H30.1892L34.554 32.3111L47.6486 27.9556L34.554 23.6L30.5494 25.7778H28.0068V20.3333L30.5494 18.7ZM25.8243 30.1333C27.0296 30.1333 28.0068 29.1583 28.0068 27.9556C28.0068 26.7528 27.0296 25.7778 25.8243 25.7778C24.619 25.7778 23.6419 26.7528 23.6419 27.9556C23.6419 29.1583 24.619 30.1333 25.8243 30.1333Z" fill="white"/>
<path d="M55.3483 34.4889V34.0708L57.5743 32.9993V18.7305L55.3483 17.659V17.2409H63.5717V17.659L61.5289 18.7305V24.898H68.7833V18.7305L66.6882 17.659V17.2409H74.9378V17.659L72.7379 18.7305V32.9993L74.9378 34.0708V34.4889H66.6882V34.0708L68.7833 32.9993V26.3353H61.5289V32.9993L63.5717 34.0708V34.4889H55.3483Z" stroke="black" stroke-width="2" mask="url(#path-1-outside-1_47_5)"/>
<path d="M83.2643 34.7502C82.0247 34.7502 80.9335 34.4715 79.9906 33.914C79.0478 33.339 78.3145 32.5812 77.7907 31.6404C77.267 30.6996 77.0051 29.6629 77.0051 28.5305C77.0051 27.3806 77.267 26.3353 77.7907 25.3945C78.3145 24.4537 79.0478 23.7045 79.9906 23.147C80.9335 22.5895 82.0247 22.3108 83.2643 22.3108C84.5039 22.3108 85.5864 22.5895 86.5117 23.147C87.4546 23.7045 88.1879 24.4537 88.7116 25.3945C89.2354 26.3353 89.4973 27.3806 89.4973 28.5305C89.4973 29.6629 89.2354 30.6996 88.7116 31.6404C88.1879 32.5812 87.4546 33.339 86.5117 33.914C85.5864 34.4715 84.5039 34.7502 83.2643 34.7502ZM83.5524 33.4697C84.0587 33.4697 84.469 33.2693 84.7833 32.8686C85.115 32.4505 85.3507 31.9017 85.4904 31.2222C85.6475 30.5428 85.7261 29.8197 85.7261 29.0532C85.7261 28.1124 85.6301 27.2238 85.438 26.3876C85.2634 25.5513 84.9753 24.8718 84.5738 24.3492C84.1896 23.8265 83.6746 23.5652 83.0286 23.5652C82.5048 23.5652 82.077 23.7742 81.7453 24.1924C81.4136 24.5931 81.1692 25.1332 81.012 25.8126C80.8549 26.4747 80.7763 27.1977 80.7763 27.9817C80.7763 28.9399 80.8723 29.8372 81.0644 30.6734C81.2565 31.4923 81.5533 32.163 81.9548 32.6857C82.3739 33.2084 82.9064 33.4697 83.5524 33.4697Z" stroke="black" stroke-width="2" mask="url(#path-1-outside-1_47_5)"/>
<path d="M91.1702 34.4889V34.0708L92.9248 33.2345V17.8681L91.2487 16.6398V16.3262L96.3032 14.8889H96.6175V33.2345L98.1627 34.0708V34.4889H91.1702Z" stroke="black" stroke-width="2" mask="url(#path-1-outside-1_47_5)"/>
<path d="M105.762 34.7502C103.964 34.7502 102.541 34.2363 101.493 33.2084C100.463 32.163 99.948 30.7867 99.948 29.0793C99.948 27.7552 100.236 26.5879 100.812 25.5774C101.388 24.5495 102.165 23.7481 103.143 23.1732C104.121 22.5982 105.212 22.3108 106.417 22.3108C107.831 22.3108 108.931 22.7812 109.717 23.722C110.502 24.6628 110.904 25.9956 110.921 27.7204L110.817 27.851H103.484V27.9817C103.484 28.7134 103.623 29.3842 103.903 29.994C104.182 30.5863 104.618 31.0567 105.212 31.4052C105.823 31.7536 106.609 31.9278 107.569 31.9278C108.075 31.9278 108.599 31.8668 109.14 31.7449C109.699 31.6229 110.275 31.4139 110.869 31.1177H110.947V31.5358C110.511 32.4592 109.839 33.2258 108.931 33.8356C108.04 34.4453 106.984 34.7502 105.762 34.7502ZM105.814 23.4868C105.203 23.4868 104.697 23.7655 104.295 24.323C103.911 24.8805 103.667 25.6645 103.562 26.675H107.988C107.866 25.4729 107.613 24.6453 107.229 24.1924C106.862 23.722 106.391 23.4868 105.814 23.4868Z" stroke="black" stroke-width="2" mask="url(#path-1-outside-1_47_5)"/>
<path d="M122.29 34.7502C121.033 34.7502 119.854 34.5412 118.754 34.123C117.672 33.6875 116.712 33.0864 115.874 32.3198C115.053 31.5532 114.407 30.656 113.936 29.6281C113.482 28.5828 113.255 27.4503 113.255 26.2308C113.255 24.8892 113.516 23.661 114.04 22.546C114.564 21.4135 115.289 20.4292 116.214 19.5929C117.139 18.7566 118.196 18.112 119.383 17.659C120.57 17.206 121.818 16.9796 123.128 16.9796C124.053 16.9796 124.839 17.0318 125.485 17.1364C126.148 17.2409 126.733 17.389 127.24 17.5806C127.763 17.7723 128.278 17.99 128.785 18.234L129.073 22.8334H128.601L126.087 19.0441C125.616 18.7479 125.162 18.5476 124.725 18.443C124.289 18.3211 123.791 18.2601 123.233 18.2601C122.133 18.2601 121.138 18.5737 120.247 19.2009C119.357 19.8281 118.65 20.7079 118.126 21.8404C117.602 22.9554 117.34 24.262 117.34 25.7604C117.34 27.3284 117.593 28.6786 118.1 29.811C118.606 30.926 119.287 31.7884 120.142 32.3982C121.015 33.008 121.984 33.3129 123.049 33.3129C123.346 33.3129 123.669 33.3042 124.018 33.2868C124.368 33.2519 124.717 33.1996 125.066 33.13V28.2953L122.735 27.067V26.6489H130.958V27.067L128.994 28.3214V32.555C128.453 33.008 127.798 33.4 127.03 33.731C126.279 34.0446 125.485 34.2972 124.647 34.4889C123.826 34.6631 123.041 34.7502 122.29 34.7502Z" stroke="black" stroke-width="2" mask="url(#path-1-outside-1_47_5)"/>
<path d="M138.857 34.7502C137.058 34.7502 135.635 34.2363 134.588 33.2084C133.558 32.163 133.043 30.7867 133.043 29.0793C133.043 27.7552 133.331 26.5879 133.907 25.5774C134.483 24.5495 135.26 23.7481 136.238 23.1732C137.215 22.5982 138.307 22.3108 139.511 22.3108C140.926 22.3108 142.025 22.7812 142.811 23.722C143.597 24.6628 143.998 25.9956 144.016 27.7204L143.911 27.851H136.578V27.9817C136.578 28.7134 136.718 29.3842 136.997 29.994C137.277 30.5863 137.713 31.0567 138.307 31.4052C138.918 31.7536 139.703 31.9278 140.664 31.9278C141.17 31.9278 141.694 31.8668 142.235 31.7449C142.794 31.6229 143.37 31.4139 143.963 31.1177H144.042V31.5358C143.606 32.4592 142.933 33.2258 142.025 33.8356C141.135 34.4453 140.079 34.7502 138.857 34.7502ZM138.909 23.4868C138.298 23.4868 137.792 23.7655 137.39 24.323C137.006 24.8805 136.761 25.6645 136.657 26.675H141.083C140.96 25.4729 140.707 24.6453 140.323 24.1924C139.957 23.722 139.485 23.4868 138.909 23.4868Z" stroke="black" stroke-width="2" mask="url(#path-1-outside-1_47_5)"/>
<path d="M152.156 34.7502C150.357 34.7502 148.934 34.2363 147.887 33.2084C146.857 32.163 146.342 30.7867 146.342 29.0793C146.342 27.7552 146.63 26.5879 147.206 25.5774C147.782 24.5495 148.559 23.7481 149.537 23.1732C150.515 22.5982 151.606 22.3108 152.81 22.3108C154.225 22.3108 155.325 22.7812 156.11 23.722C156.896 24.6628 157.298 25.9956 157.315 27.7204L157.21 27.851H149.877V27.9817C149.877 28.7134 150.017 29.3842 150.296 29.994C150.576 30.5863 151.012 31.0567 151.606 31.4052C152.217 31.7536 153.003 31.9278 153.963 31.9278C154.469 31.9278 154.993 31.8668 155.534 31.7449C156.093 31.6229 156.669 31.4139 157.263 31.1177H157.341V31.5358C156.905 32.4592 156.233 33.2258 155.325 33.8356C154.434 34.4453 153.378 34.7502 152.156 34.7502ZM152.208 23.4868C151.597 23.4868 151.091 23.7655 150.689 24.323C150.305 24.8805 150.061 25.6645 149.956 26.675H154.382C154.26 25.4729 154.006 24.6453 153.622 24.1924C153.256 23.722 152.784 23.4868 152.208 23.4868Z" stroke="black" stroke-width="2" mask="url(#path-1-outside-1_47_5)"/>
<path d="M159.151 34.4889V34.0708L160.905 33.2345V17.8681L159.229 16.6398V16.3262L164.258 14.8889H164.572V27.6681L168.5 24.0878V23.931L167.217 22.9902V22.5721H172.769V22.9902L171.093 23.9049L167.531 26.7012L172.324 33.1822L174 34.0708V34.4889H168.893L168.081 33.13L164.572 28.243V33.2606L166.274 34.0708V34.4889H159.151Z" stroke="black" stroke-width="2" mask="url(#path-1-outside-1_47_5)"/>
<path fill-rule="evenodd" clip-rule="evenodd" d="M30.5494 18.7L25.8243 4L21.0992 18.7L23.6419 20.3333V25.7778H21.0992L17.0946 23.6L4 27.9556L17.0946 32.3111L21.4595 30.1333H23.6419V36.6667L21.0992 39.9333L25.8243 53L30.5494 39.9333L28.0068 36.6667V30.1333H30.1892L34.554 32.3111L47.6486 27.9556L34.554 23.6L30.5494 25.7778H28.0068V20.3333L30.5494 18.7ZM25.8243 30.1333C27.0296 30.1333 28.0068 29.1583 28.0068 27.9556C28.0068 26.7528 27.0296 25.7778 25.8243 25.7778C24.619 25.7778 23.6419 26.7528 23.6419 27.9556C23.6419 29.1583 24.619 30.1333 25.8243 30.1333Z" stroke="black" stroke-width="2" mask="url(#path-1-outside-1_47_5)"/>
</svg>
