<svg width="16" height="15" viewBox="0 0 16 15" fill="none" xmlns="http://www.w3.org/2000/svg">
<path fill-rule="evenodd" clip-rule="evenodd" d="M3.74883 1.46662C6.37154 0.218731 9.54027 1.39836 10.8264 4.10141C11.4513 5.41489 11.5168 6.84639 11.118 8.11425L14.6055 11.2311C15.335 11.9082 15.4082 13.0448 14.7696 13.7808C14.1294 14.5186 13.013 14.5785 12.2685 13.9148L8.97962 10.9364C8.79772 11.0533 8.60648 11.16 8.40627 11.2552C5.78356 12.5031 2.61484 11.3235 1.32872 8.62043C0.0426034 5.91738 1.12612 2.71452 3.74883 1.46662ZM7.50066 9.35188C9.10342 8.58927 9.76558 6.63197 8.97962 4.98011C8.19366 3.32825 6.25721 2.60736 4.65445 3.36996C3.05168 4.13256 2.38953 6.08987 3.17549 7.74173C3.96145 9.39359 5.89789 10.1145 7.50066 9.35188Z" fill="#C4C4C4"/>
</svg>
