<svg width="46" height="37" viewBox="0 0 46 37" fill="none" xmlns="http://www.w3.org/2000/svg">
<g clip-path="url(#clip0_30_11)">
<path d="M44.85 26.4375H43.7V18.6256C43.7 17.7078 43.3334 16.8262 42.6866 16.1758L35.5062 8.95645C34.8594 8.30605 33.9825 7.9375 33.0697 7.9375H29.9V4.46875C29.9 2.55371 28.3547 1 26.45 1H3.45C1.54531 1 0 2.55371 0 4.46875V27.5938C0 29.5088 1.54531 31.0625 3.45 31.0625H4.6C4.6 34.8926 7.69062 38 11.5 38C15.3094 38 18.4 34.8926 18.4 31.0625H27.6C27.6 34.8926 30.6906 38 34.5 38C38.3094 38 41.4 34.8926 41.4 31.0625H44.85C45.4825 31.0625 46 30.5422 46 29.9062V27.5938C46 26.9578 45.4825 26.4375 44.85 26.4375ZM11.5 34.5312C9.59531 34.5312 8.05 32.9775 8.05 31.0625C8.05 29.1475 9.59531 27.5938 11.5 27.5938C13.4047 27.5938 14.95 29.1475 14.95 31.0625C14.95 32.9775 13.4047 34.5312 11.5 34.5312ZM34.5 34.5312C32.5953 34.5312 31.05 32.9775 31.05 31.0625C31.05 29.1475 32.5953 27.5938 34.5 27.5938C36.4047 27.5938 37.95 29.1475 37.95 31.0625C37.95 32.9775 36.4047 34.5312 34.5 34.5312ZM40.25 19.5H29.9V11.4062H33.0697L40.25 18.6256V19.5Z" fill="black"/>
</g>
<defs>
<clipPath id="clip0_30_11">
<rect width="46" height="37" fill="white"/>
</clipPath>
</defs>
</svg>
