<svg width="32" height="40" viewBox="0 0 32 40" fill="none" xmlns="http://www.w3.org/2000/svg">
<path fill-rule="evenodd" clip-rule="evenodd" d="M27.5 19.77C27.5014 21.9066 26.9926 24.0127 26.0158 25.913C25.039 27.8132 23.6225 29.4527 21.8841 30.695L16 34.8925L10.1158 30.695C8.37746 29.4527 6.96094 27.8132 5.98414 25.913C5.00734 24.0127 4.4985 21.9066 4.49997 19.77V7.695C8.51812 8.03891 12.5424 7.10663 16 5.03083C19.4576 7.10663 23.4818 8.03891 27.5 7.695V19.77ZM13.7958 20.5558L18.9516 15.3808L19.0283 15.3617C19.3892 15.0008 19.8787 14.798 20.3891 14.798C20.8995 14.798 21.3891 15.0008 21.75 15.3617C22.1109 15.7226 22.3136 16.2121 22.3136 16.7225C22.3136 17.2329 22.1109 17.7224 21.75 18.0833L15.1566 24.6192C14.9785 24.7988 14.7665 24.9414 14.5329 25.0387C14.2993 25.136 14.0488 25.1861 13.7958 25.1861C13.5428 25.1861 13.2923 25.136 13.0587 25.0387C12.8251 24.9414 12.6131 24.7988 12.435 24.6192L9.3683 21.5525C9.00739 21.1916 8.80463 20.7021 8.80463 20.1917C8.80463 19.6813 9.00739 19.1917 9.3683 18.8308C9.72922 18.4699 10.2187 18.2672 10.7291 18.2672C11.2395 18.2672 11.7291 18.4699 12.09 18.8308L13.7958 20.5558Z" fill="black"/>
<path fill-rule="evenodd" clip-rule="evenodd" d="M29.8626 3.62144C30.1413 3.68778 30.4015 3.81571 30.6241 3.99583C30.8465 4.17623 31.0256 4.40415 31.1484 4.66286C31.2711 4.92157 31.3343 5.20449 31.3333 5.49083V19.77C31.335 22.518 30.6802 25.2267 29.4233 27.6704C28.1664 30.1142 26.3439 32.2223 24.1075 33.8192L17.1116 38.8025C16.787 39.0336 16.3985 39.1578 16 39.1578C15.6015 39.1578 15.2129 39.0336 14.8883 38.8025L7.89247 33.8192C5.65606 32.2223 3.83354 30.1142 2.57666 27.6704C1.31979 25.2267 0.664933 22.518 0.666637 19.77V5.49083C0.665663 5.20449 0.728859 4.92157 0.851581 4.66286C0.974302 4.40415 1.15343 4.17623 1.3758 3.99583C1.59847 3.81571 1.85868 3.68778 2.1373 3.62144C2.41591 3.5551 2.70585 3.55205 2.9858 3.6125C5.03388 4.04173 7.14815 4.04719 9.19842 3.62857C11.2487 3.20994 13.1916 2.37609 14.9075 1.17833C15.2283 0.955757 15.6095 0.836487 16 0.836487C16.3905 0.836487 16.7716 0.955757 17.0925 1.17833C18.8084 2.37609 20.7512 3.20994 22.8015 3.62857C24.8518 4.04719 26.9661 4.04173 29.0141 3.6125C29.2941 3.55205 29.584 3.5551 29.8626 3.62144ZM26.0158 25.913C26.9926 24.0127 27.5014 21.9066 27.5 19.77V7.695C23.4818 8.03891 19.4576 7.10663 16 5.03083C12.5424 7.10663 8.51812 8.03891 4.49997 7.695V19.77C4.4985 21.9066 5.00734 24.0127 5.98414 25.913C6.96094 27.8132 8.37746 29.4527 10.1158 30.695L16 34.8925L21.8841 30.695C23.6225 29.4527 25.039 27.8132 26.0158 25.913Z" fill="black"/>
</svg>
