<svg width="30" height="26" viewBox="0 0 30 26" fill="none" xmlns="http://www.w3.org/2000/svg">
<path d="M3 11C1.61929 11 0.5 12.1193 0.5 13.5C0.5 14.8807 1.61929 16 3 16V11ZM27 13.5L28.5617 15.4522C29.1387 14.9906 29.482 14.2974 29.4993 13.5586C29.5166 12.8199 29.2063 12.1114 28.6516 11.6232L27 13.5ZM16.1516 0.623216C15.1151 -0.288921 13.5354 -0.188089 12.6232 0.84843C11.7111 1.88495 11.8119 3.46465 12.8484 4.37678L16.1516 0.623216ZM12.9383 21.5478C11.8601 22.4104 11.6853 23.9836 12.5478 25.0617C13.4104 26.1399 14.9836 26.3147 16.0617 25.4522L12.9383 21.5478ZM3 16H27V11H3V16ZM28.6516 11.6232L16.1516 0.623216L12.8484 4.37678L25.3484 15.3768L28.6516 11.6232ZM25.4383 11.5478L12.9383 21.5478L16.0617 25.4522L28.5617 15.4522L25.4383 11.5478Z" fill="#17222D"/>
</svg>
