<svg width="27" height="26" viewBox="0 0 27 26" fill="none" xmlns="http://www.w3.org/2000/svg">
<path d="M0 0H4.5L5.5 2.5H26.5L21 14.5H9.5L8 17H23.5V19.5H3.5L7 13L2.5 2.5H0V0Z" fill="#17222D"/>
<path d="M23 23.5C23 24.8807 21.8807 26 20.5 26C19.1193 26 18 24.8807 18 23.5C18 22.1193 19.1193 21 20.5 21C21.8807 21 23 22.1193 23 23.5Z" fill="#17222D"/>
<path d="M10 23.5C10 24.8807 8.88071 26 7.5 26C6.11929 26 5 24.8807 5 23.5C5 22.1193 6.11929 21 7.5 21C8.88071 21 10 22.1193 10 23.5Z" fill="#17222D"/>
</svg>
